<svg width="88" height="50" viewBox="0 0 88 50" fill="none" xmlns="http://www.w3.org/2000/svg">
<path d="M13.79 18.4286C19.0027 18.4286 22.6042 19.6429 24.5945 22.0714C24.5945 25.2619 23.7178 26.8571 21.9645 26.8571C21.1589 26.8571 20.5428 26.6905 20.1163 26.3571C19.6898 25.9762 19.1449 25.3095 18.4814 24.3571C17.0124 22.1667 15.259 21.0714 13.2213 21.0714C11.2784 21.0714 9.50135 22 7.89014 23.8571C6.32633 25.7143 5.54443 28.4762 5.54443 32.1429C5.54443 35.9524 6.4685 39.119 8.31664 41.6429C10.2122 44.1667 12.8185 45.4286 16.1357 45.4286C17.1309 45.4286 18.0786 45.3333 18.979 45.1429C19.8794 44.9524 20.6376 44.7381 21.2536 44.5C21.9171 44.2143 22.462 43.9524 22.8885 43.7143C23.3624 43.4286 23.7652 43.1667 24.0969 42.9286L24.5945 42.5714C24.8788 42.5714 25.021 42.881 25.021 43.5C25.021 43.881 24.8788 44.3095 24.5945 44.7857C23.6467 46.119 22.2488 47.3333 20.4006 48.4286C18.5525 49.4762 16.5385 50 14.3586 50C10.4254 50 7.03716 48.5238 4.19386 45.5714C1.39795 42.5714 0 38.9286 0 34.6429C0 30.2619 1.18471 26.4762 3.55412 23.2857C5.92353 20.0476 9.33549 18.4286 13.79 18.4286Z" fill="white"/>
<path d="M44.3554 18.2857C48.9047 18.2857 52.4588 19.8571 55.0178 23C57.6241 26.0952 58.9273 29.4048 58.9273 32.9286C58.9273 37.4524 57.245 41.4286 53.8805 44.8571C50.5633 48.2857 46.8907 50 42.8627 50C41.1093 50 39.427 49.8571 37.8158 49.5714C36.252 49.2381 35.3516 49.0714 35.1147 49.0714C34.6882 49.0714 34.1432 49.2143 33.4798 49.5C32.8638 49.7381 32.5083 49.8571 32.4136 49.8571C32.224 49.8571 31.916 49.7857 31.4895 49.6429C31.1104 49.5 30.9208 49.3333 30.9208 49.1429C30.9208 49.0952 30.9919 48.7143 31.1341 48C31.2763 47.2381 31.4184 46.1429 31.5606 44.7143C31.7027 43.2857 31.7738 41.6905 31.7738 39.9286V10.3571C31.7738 8.7381 31.6317 7.21429 31.3473 5.78571C31.1104 5.02381 29.902 4.64286 27.7221 4.64286H27.0824C26.7981 4.64286 26.6559 4.38095 26.6559 3.85714C26.6559 3.09524 26.7981 2.71429 27.0824 2.71429C28.504 2.57143 29.8072 2.38095 30.9919 2.14286C32.224 1.90476 33.1718 1.66667 33.8352 1.42857C34.546 1.19048 35.1384 0.976191 35.6123 0.785714C36.0862 0.547619 36.4416 0.357143 36.6785 0.214286L36.9628 0H37.105C37.2946 0 37.4841 0.142857 37.6737 0.428571C37.8632 0.666667 37.9817 0.904762 38.0291 1.14286C37.5078 2.66667 37.2472 4.7381 37.2472 7.35714V19.8571C37.2472 20.381 37.3183 20.6429 37.4604 20.6429C37.5078 20.6429 37.5789 20.619 37.6737 20.5714C38.3371 20.0952 39.3559 19.5952 40.7302 19.0714C42.1045 18.5476 43.3129 18.2857 44.3554 18.2857ZM42.0808 21.7857C40.7539 21.7857 39.6166 22.1667 38.6688 22.9286C37.7211 23.6429 37.2472 24.6905 37.2472 26.0714V42.7143C37.2472 44.1905 37.9343 45.2857 39.3086 46C40.7302 46.6667 42.3651 47 44.2132 47C46.9144 47 49.0232 45.7143 50.5396 43.1429C52.056 40.5714 52.8142 37.6667 52.8142 34.4286C52.8142 30.6667 51.8191 27.619 49.8288 25.2857C47.8858 22.9524 45.3032 21.7857 42.0808 21.7857Z" fill="white"/>
<path d="M82.4556 18.3571C85.2515 18.3571 87.0996 19.0476 88 20.4286C88 22.0952 87.7394 23.3095 87.2181 24.0714C86.6968 24.8333 86.0571 25.2143 85.2989 25.2143C84.4459 25.2143 83.664 24.8095 82.9531 24C82.2423 23.1905 81.2709 22.7857 80.0388 22.7857C78.5697 22.7857 77.2903 23.4762 76.2003 24.8571C75.1104 26.2381 74.5654 27.6905 74.5654 29.2143V39.9286C74.5654 42.6905 74.755 44.8095 75.1341 46.2857C75.2289 46.619 75.8449 46.9524 76.9822 47.2857C78.1669 47.5714 78.9962 47.7143 79.4701 47.7143C79.6123 47.7143 79.7071 48 79.7544 48.5714C79.8018 49.1429 79.7781 49.5476 79.6834 49.7857C74.9445 49.5476 72.3856 49.4286 72.0065 49.4286C71.7221 49.4286 69.1395 49.5476 64.2585 49.7857C64.0689 49.5952 63.9741 49.2143 63.9741 48.6429C63.9741 48.0238 64.0689 47.7143 64.2585 47.7143C64.8271 47.7143 65.6564 47.5714 66.7464 47.2857C67.8837 46.9524 68.4997 46.619 68.5945 46.2857C68.9262 44.9048 69.0921 43.2381 69.0921 41.2857V27.7857C69.0921 25.9286 68.7604 24.6429 68.0969 23.9286C67.623 23.3571 67.0307 22.9762 66.3199 22.7857C65.6564 22.5476 65.0878 22.4286 64.6139 22.4286C64.1874 22.4286 63.9741 22.381 63.9741 22.2857C63.9741 21.1429 64.1163 20.5476 64.4006 20.5C69.4238 19.7381 72.6936 19.119 74.21 18.6429C74.2574 18.6429 74.3285 18.6429 74.4233 18.6429C74.518 18.5952 74.5654 18.5714 74.5654 18.5714C74.755 18.5714 74.8735 18.7857 74.9208 19.2143C74.9682 19.5952 74.9682 19.881 74.9208 20.0714L74.4943 23.6429C75.3473 22.3571 76.5083 21.1667 77.9774 20.0714C79.4938 18.9286 80.9865 18.3571 82.4556 18.3571Z" fill="white"/>
</svg>
