<svg width="99" height="67" viewBox="0 0 99 67" fill="none" xmlns="http://www.w3.org/2000/svg">
<mask id="mask0" mask-type="alpha" maskUnits="userSpaceOnUse" x="0" y="0" width="99" height="67">
<mask id="path-1-inside-1" mask-type="luminance" fill="white">
<path fill-rule="evenodd" clip-rule="evenodd" d="M87.2239 28.127C87.4915 26.6879 87.6316 25.2028 87.6316 23.6842C87.6316 10.6038 77.2399 0 64.4211 0C57.1567 0 50.6718 3.40534 46.4158 8.73697C43.7314 6.81263 40.4675 5.68421 36.9474 5.68421C28.0853 5.68421 20.8473 12.8361 20.3912 21.8346C9.00881 22.5711 0 32.2369 0 44.0526C0 56.1865 9.50052 66.0532 21.3158 66.3106V66.3158H21.7895H80.5263H81L81.0009 66.31C91.4801 66.0515 99 57.2459 99 46.4211C99 38.2141 94.1489 31.1678 87.2239 28.127Z"/>
</mask>
<path fill-rule="evenodd" clip-rule="evenodd" d="M87.2239 28.127C87.4915 26.6879 87.6316 25.2028 87.6316 23.6842C87.6316 10.6038 77.2399 0 64.4211 0C57.1567 0 50.6718 3.40534 46.4158 8.73697C43.7314 6.81263 40.4675 5.68421 36.9474 5.68421C28.0853 5.68421 20.8473 12.8361 20.3912 21.8346C9.00881 22.5711 0 32.2369 0 44.0526C0 56.1865 9.50052 66.0532 21.3158 66.3106V66.3158H21.7895H80.5263H81L81.0009 66.31C91.4801 66.0515 99 57.2459 99 46.4211C99 38.2141 94.1489 31.1678 87.2239 28.127Z" fill="#84D6FE"/>
<path d="M87.2239 28.127L86.2407 27.9441L86.0957 28.7238L86.8218 29.0426L87.2239 28.127ZM46.4158 8.73697L45.8332 9.54971L46.6049 10.103L47.1973 9.36083L46.4158 8.73697ZM20.3912 21.8346L20.4558 22.8325L21.3449 22.775L21.3899 21.8852L20.3912 21.8346ZM21.3158 66.3106H22.3158V65.3322L21.3376 65.3109L21.3158 66.3106ZM21.3158 66.3158H20.3158V67.3158H21.3158V66.3158ZM81 66.3158V67.3158H81.8543L81.9877 66.472L81 66.3158ZM81.0009 66.31L80.9763 65.3103L80.1434 65.3308L80.0132 66.1537L81.0009 66.31ZM88.207 28.3098C88.4858 26.8107 88.6316 25.2644 88.6316 23.6842H86.6316C86.6316 25.1411 86.4972 26.5651 86.2407 27.9441L88.207 28.3098ZM88.6316 23.6842C88.6316 10.0706 77.8111 -1 64.4211 -1V1C76.6686 1 86.6316 11.1369 86.6316 23.6842H88.6316ZM64.4211 -1C56.8354 -1 50.069 2.5575 45.6342 8.1131L47.1973 9.36083C51.2745 4.25319 57.478 1 64.4211 1V-1ZM46.9984 7.92422C44.1514 5.88332 40.6853 4.68421 36.9474 4.68421V6.68421C40.2497 6.68421 43.3114 7.74193 45.8332 9.54971L46.9984 7.92422ZM36.9474 4.68421C27.5256 4.68421 19.8741 12.2811 19.3925 21.784L21.3899 21.8852C21.8204 13.3911 28.6451 6.68421 36.9474 6.68421V4.68421ZM20.3267 20.8367C8.40323 21.6082 -1 31.7248 -1 44.0526H1C1 32.7491 9.61438 23.534 20.4558 22.8325L20.3267 20.8367ZM-1 44.0526C-1 56.7118 8.91672 67.0407 21.294 67.3104L21.3376 65.3109C10.0843 65.0657 1 55.6612 1 44.0526H-1ZM20.3158 66.3106V66.3158H22.3158V66.3106H20.3158ZM21.3158 67.3158H21.7895V65.3158H21.3158V67.3158ZM21.7895 67.3158H80.5263V65.3158H21.7895V67.3158ZM80.5263 67.3158H81V65.3158H80.5263V67.3158ZM81.9877 66.472L81.9886 66.4662L80.0132 66.1537L80.0123 66.1596L81.9877 66.472ZM98 46.4211C98 56.7912 90.829 65.0672 80.9763 65.3103L81.0256 67.3096C92.1312 67.0357 100 57.7005 100 46.4211H98ZM86.8218 29.0426C93.3867 31.9252 98 38.6143 98 46.4211H100C100 37.8138 94.9111 30.4103 87.6259 27.2114L86.8218 29.0426Z" fill="#FF0000" mask="url(#path-1-inside-1)"/>
</mask>
<g mask="url(#mask0)">
<circle cx="48.7893" cy="36.0002" r="55.8947" fill="#84D6FE"/>
<circle cx="20.3687" cy="54" r="58.7368" fill="#59A0DE" fill-opacity="0.8"/>
<g style="mix-blend-mode:multiply">
<circle cx="94.2632" cy="73.8946" r="58.7368" fill="#59A0DE" fill-opacity="0.52"/>
</g>
<g style="mix-blend-mode:multiply">
<circle cx="101.369" cy="85.7367" r="48.7895" fill="#4185CE" fill-opacity="0.17"/>
</g>
<circle cx="0.000411987" cy="74.3686" r="48.7895" fill="#296BB9"/>
</g>
</svg>
