<svg width="50" height="44" viewBox="0 0 50 44" fill="none" xmlns="http://www.w3.org/2000/svg">
<path fill-rule="evenodd" clip-rule="evenodd" d="M19.9294 36.6591C20.1822 39.2858 17.0422 39.5176 15.5373 40.7124L15.7124 42.7372C17.6499 43.5494 31.5071 43.536 33.3857 42.7194L33.734 40.7264C32.0817 39.4813 28.9573 39.2803 29.2403 36.6591C32.4597 36.6591 35.6791 36.6591 38.8985 36.6591C41.788 36.6591 46.1424 37.3506 47.8821 35.4067C49.5839 33.5055 48.9833 29.5873 48.9833 26.7491C48.9833 23.3875 48.9833 20.026 48.9833 16.6645C48.9833 -1.92049 51.5715 1.20016 24.5848 1.20016C18.054 1.20016 11.2367 1.00833 4.74213 1.19891C-1.35949 1.3781 0.186346 8.07158 0.186346 16.339C0.186346 40.0187 -3.30426 36.6591 19.9294 36.6591ZM4.45102 3.87541C2.01137 4.55606 2.72779 7.19039 2.72779 11.4595L2.71889 30.0082C2.69469 34.6855 3.60932 34.1358 7.99269 34.1242C12.3015 34.1129 43.4808 34.3915 44.8859 34.0095C47.2086 33.3779 46.4419 28.9627 46.4419 26.4238L46.4508 7.87511C46.4746 3.22501 45.5261 3.72397 41.1769 3.73696C36.8566 3.74995 5.9036 3.47023 4.45102 3.87541Z" fill="#FFB600"/>
<path fill-rule="evenodd" clip-rule="evenodd" d="M11.8696 7.40495C8.43936 8.02794 5.79721 11.0167 6.39013 15.0088C7.64483 23.4567 20.8812 21.6893 19.3808 12.7864C18.8407 9.58213 15.6711 6.71434 11.8696 7.40495Z" fill="#FFB600"/>
<path fill-rule="evenodd" clip-rule="evenodd" d="M39.5791 30.1084L40.8495 30.1613L42.8829 30.1524V8.50977L39.5791 8.52329V30.1084Z" fill="#FFB600"/>
<path fill-rule="evenodd" clip-rule="evenodd" d="M17.4379 16.0132L12.9419 13.9665L12.8811 8.88428C8.98635 9.24462 6.12764 13.3395 8.74809 16.8871C11.1372 20.1218 15.7919 19.644 17.4379 16.0132Z" fill="#FFB600"/>
<path fill-rule="evenodd" clip-rule="evenodd" d="M32.7162 14.0616L29.7363 14.0454V29.8649H32.7167L32.7162 14.0616Z" fill="#FFB600"/>
<path fill-rule="evenodd" clip-rule="evenodd" d="M34.54 30.1528L37.9029 30.1378L37.8913 17.4166L34.6701 17.3984L34.54 30.1528Z" fill="#FFB600"/>
<path fill-rule="evenodd" clip-rule="evenodd" d="M6.28516 26.0981H19.3788L19.5006 24.3208H6.36629L6.28516 26.0981Z" fill="#FFB600"/>
<path fill-rule="evenodd" clip-rule="evenodd" d="M6.28516 30.1522H19.3788L19.5006 28.375H6.36629L6.28516 30.1522Z" fill="#FFB600"/>
<path fill-rule="evenodd" clip-rule="evenodd" d="M24.584 30.1524H27.8877V23.4956H24.584V30.1524Z" fill="#FFB600"/>
</svg>
