<svg width="44" height="45" viewBox="0 0 44 45" fill="none" xmlns="http://www.w3.org/2000/svg">
<path fill-rule="evenodd" clip-rule="evenodd" d="M32.666 43.5464L32.7093 43.4103L32.8257 42.3618L32.8317 41.3525L32.8257 40.2423L32.8319 39.233L32.8262 37.9094L34.8555 37.4435C35.1146 37.2643 35.3584 37.1693 35.6892 37.1547C36.0182 36.8141 36.661 36.5552 37.0727 36.3043C39.3083 34.9419 40.154 33.0493 40.4727 32.8194C41.1603 30.9593 42.0366 30.0954 41.9531 27.1221C41.9227 26.0357 41.7721 25.0335 41.4645 24.0466C41.0055 22.575 40.5567 22.1616 40.3389 21.5837C40.6975 21.0808 41.5144 20.5859 41.668 19.8047C41.8495 18.8808 41.2475 18.097 40.5343 17.9153C39.0755 17.5441 38.2536 19.2426 36.9215 20.5066L30.8209 27.1013C30.1333 26.4306 29.4137 25.7782 28.7357 25.0691C28.3788 24.6956 28.0759 24.3194 27.2906 24.3696C25.9243 24.4566 25.5142 25.8987 26.0091 26.7867C26.197 27.1237 28.9402 29.7803 29.1601 29.9941C29.7184 30.5371 30.6698 31.6252 31.8882 30.718L38.008 24.1315C38.5025 24.7835 38.7394 26.5471 38.7246 27.5266C38.6769 30.6679 36.5179 33.5844 33.2707 34.5183C28.3631 35.9297 24.0643 32.2605 23.7221 27.9348C23.3464 23.1886 27.334 19.2358 32.1454 19.8204C32.7328 19.8917 34.4948 20.5183 35.0014 18.9903C35.4563 17.6187 34.4384 16.9594 33.2339 16.7314C32.0071 16.4992 30.6964 16.468 29.4607 16.6773C28.7583 16.7962 26.6634 17.3284 26.3808 17.7336L25.816 18.013C25.2149 18.2922 24.134 19.144 23.7627 19.5592C23.4028 19.9615 23.2244 20.0706 22.8952 20.5071C22.6341 20.8532 22.2768 21.2262 22.1149 21.6018C21.8997 21.9328 21.8905 21.9195 21.7526 22.2771C20.9954 22.9083 20.4667 26.1387 20.4633 27.4287C20.4585 29.3421 21.0356 31.1791 21.8572 32.5566C22.7749 34.0953 23.6192 35.0341 24.9469 36.0257C26.1945 36.9576 27.7702 37.5951 29.5961 37.9323L29.6009 41.0706L4.25577 41.0793L4.26253 6.20248L8.01116 6.21083C8.01116 7.73797 7.98892 9.15247 9.63546 9.17542C10.3592 9.18556 10.8112 8.76455 11.0407 8.33961C11.3445 7.77712 11.2322 6.92013 11.2414 6.20941L15.3166 6.20673C15.3235 6.96016 15.0066 9.16956 16.8964 9.17063C18.5408 9.17169 18.5474 7.70043 18.5465 6.24945L22.6186 6.20941C22.6181 7.28919 22.4542 8.03923 23.1155 8.71418C23.8249 9.26048 24.5472 9.42437 25.2871 8.77077C26.0192 8.12411 25.8413 7.34685 25.8413 6.20248L26.3808 6.2055L27.3897 6.21261L28.4994 6.2055L29.5084 6.21261C29.9837 6.7468 29.0996 12.9997 29.9636 14.0513C30.4399 14.6313 31.3252 14.8135 32.0359 14.4113C33.2148 13.7444 32.8016 11.3305 32.8225 9.66175C32.8314 8.93608 32.9209 4.50504 32.7431 4.21107C32.4954 3.30425 32.3214 3.45942 31.627 3.01598L25.8717 2.97665C25.7921 2.28978 26.1963 0.0149026 24.2582 0.0138349C23.5504 0.013479 23.0493 0.399973 22.813 0.847509C22.5024 1.4358 22.648 2.26379 22.6003 2.95227L18.5638 2.97736C18.463 1.452 18.6027 0.00511137 16.9028 0.0184574C16.1398 0.0243296 15.7328 0.414743 15.5015 0.901249C15.1954 1.54417 15.3798 2.23319 15.2929 2.9827L11.261 2.97808C11.2076 2.42964 11.6092 0.0108025 9.63385 0.00635387C7.68213 0.0019052 8.0382 2.38586 7.99086 2.97166C1.41608 3.09462 1.07959 2.17696 1.0367 6.02826C0.925664 16.0198 1.10948 26.2445 1.03154 36.3066C1.01891 37.9436 1.01536 39.6157 1.03564 41.2519C1.05895 43.1225 0.858939 44.3121 3.07473 44.31C11.3774 44.302 20.0473 44.3936 28.2982 44.3078C29.1395 44.2991 29.9801 44.3135 30.8222 44.3066C31.7366 44.2991 31.935 44.2457 32.487 43.7144L32.666 43.5464Z" fill="#00B0F0"/>
<path fill-rule="evenodd" clip-rule="evenodd" d="M8.95121 33.6592C7.20341 34.203 7.40716 36.7439 9.62989 36.7992C10.6241 36.824 15.0398 36.8953 15.6872 36.7046C17.2291 36.2504 17.3401 33.6108 14.9868 33.5625C14.0063 33.5423 9.55765 33.4706 8.95121 33.6592Z" fill="#00B0F0"/>
<path fill-rule="evenodd" clip-rule="evenodd" d="M7.85555 22.2175C8.29223 22.8122 8.207 23.1731 9.43163 23.2916C10.7346 23.3836 12.3186 23.2834 13.6694 23.3008C14.2467 23.3085 15.2975 23.3676 15.7834 23.1813C16.4532 22.9245 16.3982 22.5723 16.8305 22.0899L16.8271 21.2699L16.5769 20.9651C16.1988 20.1955 15.7608 20.0983 14.6778 20.0734L13.6689 20.0672L12.5592 20.0734C10.3621 20.0519 7.46175 19.4807 7.85555 22.2175Z" fill="#00B0F0"/>
<path fill-rule="evenodd" clip-rule="evenodd" d="M15.7309 16.4884C16.2374 16.1236 16.8363 15.9652 16.79 14.8082C16.5306 12.9221 14.6244 13.3538 12.8619 13.3318C11.436 13.3138 8.89722 12.9906 8.16088 13.9425C7.73558 14.4925 7.70729 15.3844 8.12369 15.9161C8.63226 16.5656 9.31469 16.5471 10.2388 16.553C11.8104 16.5631 14.2543 16.6909 15.7309 16.4884Z" fill="#00B0F0"/>
<path fill-rule="evenodd" clip-rule="evenodd" d="M8.25916 27.2836L8.1056 27.4644C7.65628 28.1648 7.73938 29.1462 8.33034 29.6374C9.10957 30.2853 12.8011 30.0537 13.9723 30.052C15.0432 30.0504 15.8858 30.1472 16.4255 29.4747C16.9487 28.8225 16.8963 27.818 16.3305 27.2869C15.7491 26.7411 14.7599 26.8334 13.7705 26.8226C12.3338 26.8069 9.03893 26.49 8.25916 27.2836Z" fill="#00B0F0"/>
</svg>
