<svg width="49" height="50" viewBox="0 0 49 50" fill="none" xmlns="http://www.w3.org/2000/svg">
<path fill-rule="evenodd" clip-rule="evenodd" d="M11.9689 15.6796C11.0249 16.1792 10.5296 16.7786 10.5031 17.9947C10.473 19.3716 10.7687 19.9586 11.1852 21.0989C11.6623 22.4056 12.1965 23.8462 13.6627 24.3332C14.5049 24.613 14.7669 24.2944 15.3871 24.3413C16.1451 25.675 16.5086 26.7914 17.5243 28.3105C18.4622 29.7132 19.2299 30.6288 20.3748 31.6264C22.7185 33.6682 26.3292 34.4229 29.6551 32.6678C32.1116 31.3714 33.8809 28.714 35.3091 25.9851C35.6635 25.3083 35.9966 24.6346 36.3988 24.0187C36.8707 23.2961 37.1248 23.3164 37.5818 22.0909C37.9716 21.0458 38.4373 18.7154 37.1633 17.9498C36.8929 17.7873 36.8048 17.8651 36.5087 17.8035L36.7975 14.8871C36.9673 12.0026 36.762 9.19366 34.9525 7.02013C34.0102 5.88833 32.892 4.94158 31.2509 4.20823C26.2561 1.97639 19.7424 3.06943 16.6191 6.95035C14.8132 9.19456 14.5477 11.8551 14.7049 14.8271C14.7578 15.8265 14.9961 16.9245 15.0121 17.8447C14.8826 17.7521 14.9847 17.8635 14.8725 17.7048C14.8707 17.7021 14.7998 17.5626 14.7935 17.5481C14.5832 17.0565 14.325 16.1473 14.0483 15.7596C13.8745 15.5158 13.5836 15.4974 13.503 15.2861C13.503 13.1548 13.3357 10.5697 14.0679 8.72185C15.3491 5.48825 18.443 3.02931 21.8197 2.05439C25.7117 0.930642 30.0927 1.56633 33.3702 3.75999C34.8259 4.73432 35.8765 5.93098 36.8293 7.50581C38.3677 10.0487 37.9071 12.0349 38.0432 15.2885C38.0674 15.8649 38.0052 16.4815 38.4138 16.7032C38.9333 16.985 39.4228 16.6403 39.4953 16.1539C39.6039 15.4253 39.5214 11.6674 39.5138 10.7898C39.5019 9.40167 39.4895 9.23705 38.9051 7.84981C38.5377 6.97733 38.1207 6.25247 37.6224 5.56072C37.0538 4.77189 36.9602 4.70897 36.3679 4.1052C33.8837 1.57289 29.8731 -0.157614 25.1282 0.022072C21.6418 0.15419 17.8963 1.42467 15.4398 3.81084C14.6667 4.56149 13.9905 5.34002 13.4177 6.28349C12.9924 6.98389 12.5163 7.89157 12.2788 8.78523C11.785 10.6435 12.0099 13.6291 11.9689 15.6796ZM17.2542 20.2689L17.0454 19.9669C16.991 19.8497 16.957 19.7582 16.9032 19.652C16.7824 19.4137 16.6788 19.2294 16.5431 19.03C16.1988 18.5236 15.9338 18.3362 15.3792 18.7301C15.3343 19.2453 16.0802 21.1542 16.2677 21.726C16.8702 23.5657 16.3911 22.9279 17.6629 24.2512C18.1336 24.7407 19.2862 25.5384 19.9288 25.9055C20.4507 26.2037 22.0676 27.0388 22.7082 27.0479C22.8873 26.982 23.2457 26.0961 24.146 26.051C24.7324 26.0218 25.9771 26.0181 26.4704 26.2259C26.9131 26.4123 27.4043 27.1538 27.2395 27.8328C26.7011 30.051 23.0717 28.8282 21.7383 28.4254C19.9856 27.8962 18.8571 27.0164 18.3238 26.8736C18.5389 27.6092 19.8936 29.3823 20.4085 29.9223C21.0871 30.6341 22.2438 31.5396 23.5644 31.9019C24.7688 32.2327 27.0384 32.2246 28.176 31.8211C31.2599 30.7275 32.8688 27.8302 34.1556 25.0048C34.4177 24.4295 34.6897 23.7754 35.0339 23.2888C35.4079 22.7597 35.7393 22.5189 36.0673 21.7836C37.1027 19.4614 36.0228 17.9203 35.2109 18.7379C34.7564 19.1957 34.4842 20.108 34.2433 20.3601C34.3251 19.31 35.1387 16.1868 34.9431 15.3316C32.181 15.1164 30.0759 15.0528 27.5328 14.204C25.2522 13.4427 23.2272 12.2339 21.5245 10.5894C21.3709 10.441 21.1126 10.1568 20.8761 10.1687C20.5404 10.1854 19.5894 10.5857 19.3202 10.7437C18.4494 11.2558 17.7484 12.0707 17.2017 12.8922C16.1567 14.463 16.5814 16.3089 16.9196 18.3499C17.0194 18.9517 17.2123 19.7016 17.2542 20.2689Z" fill="#00B0F0"/>
<path fill-rule="evenodd" clip-rule="evenodd" d="M18.059 33.7495L15.0035 34.5652C12.0712 35.3531 5.90583 36.773 4.38767 39.1623C2.7189 41.7888 2.81047 45.9385 2.75082 49.0089H0.975586C16.9092 49.0089 32.8426 49.0089 48.7762 49.0089C48.7161 45.8315 48.8222 41.9321 47.1616 39.1979C46.7066 38.4488 45.9239 37.9249 45.0619 37.4365C42.6407 36.065 37.9764 34.9687 34.9786 34.1481C34.4968 34.0161 33.885 33.796 33.4255 33.7153C33.6626 35.4633 33.5872 36.8736 32.9257 38.357C32.2199 39.9401 30.9837 42.1542 29.9784 43.538C29.3748 44.3689 28.1961 45.6893 27.3632 46.3417C27.1317 46.5228 26.0681 47.4146 25.793 47.4651C25.393 47.5385 23.3132 45.6138 22.8525 45.1186C21.2037 43.3464 19.6738 40.7866 18.6504 38.4808C17.821 36.6118 17.9965 35.9044 18.059 33.7495Z" fill="#00B0F0"/>
<path fill-rule="evenodd" clip-rule="evenodd" d="M22.7031 36.7306C22.864 37.3499 24.1354 38.4939 24.3386 38.8058C24.0789 39.5996 23.4502 41.0514 23.0922 41.9552C22.9908 42.2111 22.6757 42.7922 22.7725 43.0082C22.9663 43.4407 23.8375 44.3472 24.1197 44.6023C24.5027 44.9483 25.3917 45.7438 25.7646 45.939C26.0657 45.7772 26.5281 45.3442 26.8201 45.1068C27.4418 44.6011 28.1979 43.7364 28.6856 43.1076C28.8928 42.8405 28.7816 42.7837 28.6428 42.4446L27.2603 38.974C27.169 38.6888 27.3602 38.5374 27.5217 38.3716C27.7331 38.1545 27.8093 38.065 27.9893 37.8603C28.2303 37.5861 28.6857 37.0791 28.8195 36.7306C28.605 36.3952 28.3538 36.1699 28.0661 35.8706C27.8435 35.6389 27.4731 35.2231 27.0906 35.2231H24.3811C23.9875 35.2231 23.7334 35.6721 23.493 35.9C23.2622 36.1188 22.8856 36.4525 22.7031 36.7306Z" fill="#00B0F0"/>
</svg>
